<svg xmlns="http://www.w3.org/2000/svg" version="1.1" xmlns:inkscape="http://www.inkscape.org/namespaces/inkscape" xmlns:sodipodi="http://sodipodi.sourceforge.net/DTD/sodipodi-0.dtd" xmlns:svg="http://www.w3.org/2000/svg" xmlns:xlink="http://www.w3.org/1999/xlink" viewBox="0 0 793.7 552">
  <defs>
    <style>
      .cls-maplocation1 {
        opacity: .5;
      }

      .cls-maplocation3 {
        opacity: .2;
      }

      .cls-5 {
        fill: #fff;
      }
    </style>
    <clipPath id="clippath">
      <rect class="cls-4" x="601" y="129.5" width="52.6" height="123.7"></rect>
    </clipPath>
    <clipPath id="clippath-1">
      <rect class="cls-4" x="601" y="129.5" width="52.6" height="123.7"></rect>
    </clipPath>
    <clipPath id="clippath-2">
      <rect class="cls-4" x="635.6" y="95.4" width="64" height="190"></rect>
    </clipPath>
    <clipPath id="clippath-3">
      <rect class="cls-4" x="635.6" y="95.4" width="64" height="190"></rect>
    </clipPath>
  </defs>
  <g id="svg2" sodipodi:docname="Logo Branco MKS.svg">
    <sodipodi:namedview id="namedview4" bordercolor="#666666" borderopacity="1.0" inkscape:current-layer="g12" inkscape:cx="348.10051" inkscape:cy="317.60653" inkscape:pagecheckerboard="0" inkscape:pageopacity="0.0" inkscape:pageshadow="2" inkscape:window-height="1017" inkscape:window-maximized="1" inkscape:window-width="1920" inkscape:window-x="-8" inkscape:window-y="-8" inkscape:zoom="1.0657841" pagecolor="#ffffff" showgrid="false"></sodipodi:namedview>
    <g id="g22">
      <path id="path24" class="cls-5" d="M592.5,377c-13.2,13.8-30.4,21.4-51.7,22.8-21.3,1.4-42.1-.7-62.6-6.1-7.7-2.1-14.1-4.9-19-8.4,6.4-6.3,9.9-13,10.4-20.2.6-7.8-3-15.9-10.8-24.6l-7.1-8c1.1-1.8,2.4-3.3,3.9-4.8,35.7,13.2,61.1,18.8,76.1,16.7,15-2.1,22.3-6.4,21.9-13.1-.4-6.5-4.8-11.4-13.1-14.7-20.4-8.1-43.4-10.3-62.5-21.3-17.5-10.1-26.7-26.1-27.6-48.1-.9-22,5.3-40,18.5-54.2,12.9-13.9,30-21.9,51.4-23.8,3-.3,3.2-.4,6.4-.4h0s10.1,0,10.1,0c.4,0,.8,0,1.2,0,.2,0,.4,0,.5,0,.3,0,.6,0,.9,0,.2,0,.4,0,.6,0,.3,0,.6,0,.9.1.4,0,.8.1,1.2.2,0,0,.2,0,.3,0,.4,0,.7.1,1.1.2,0,0,0,0,0,0,.3,0,.6.2,1,.3,0,0,0,0,.1,0,.3,0,.6.2.8.3.2,0,.4.1.7.2.3.1.6.2,1,.4,0,0,.2,0,.3.1.3.1.6.3,1,.4.4.2.7.4,1.1.6.2.1.4.2.7.4,0,0,.2,0,.2.1.2.1.4.2.6.3.3.2.5.3.8.5.2.1.4.2.5.4.6.4,1.3.9,1.9,1.4.2.2.4.3.5.5.2.2.4.4.6.5.2.2.4.4.6.5,1.5,1.5,2.9,3.2,4,5,.4.6.7,1.2,1,1.8.2.4.4.8.6,1.3,0,0,0,.1,0,.2,0,.2.2.4.2.6.3.8.6,1.6.8,2.4.1.4.2.7.3,1.1.1.4.2.9.3,1.3,0,.4.1.7.2,1.1,0,.5.1,1,.2,1.5,0,.2,0,.4,0,.5,0,.2,0,.5,0,.7,0,.2,0,.4,0,.6,0,.3,0,.7,0,1,0,13.9-10.6,25.4-24.2,26.7h-14.2c-1.4,0-2.8,0-4.1,0-4.3.2-8.3,1.3-10.9,4.4-1.6,1.9-2.2,4.5-2,7,.3,4.5,3.2,8.5,6.7,11.2,5.4,4.2,12.4,6.4,18.8,8.7,7.2,2.5,14.5,4.7,21.8,6.8,31.2,8.7,53.2,26.9,55.4,61.2,1.5,22.7-4.7,41.2-18.4,55.4"></path>
    </g>
    <g id="g26">
      <path id="path28" class="cls-5" d="M280.5,169.6c-12.8,0-23,4.6-30.6,13.6l-46.2,55.5-46.5-55.5c-7.5-9-17.6-13.5-30.2-13.6h-32.9v224.3h32.9c21.9,0,32.9-9.6,32.9-28.9v-91.4l43.9,51.2,43.8-51.5v91.7c0,19.3,11,28.9,32.9,28.9s32.9-9.6,32.9-28.9v-195.4h-32.9Z"></path>
    </g>
    <g id="g30">
      <path id="path32" class="cls-5" d="M439.6,341l-52.5-59.8,52.5-59.5c7.7-8.4,11.2-16.5,10.6-24.4-.6-7.9-4.5-15.1-11.9-21.7-7.4-6.6-15.4-9.3-24.2-8.2-8.8,1.1-16.9,6.3-24.3,15.4l-63.2,70v57.1l63.2,70.3c7.3,9.1,15.4,14.2,24.3,15.3,8.9,1.1,17.1-1.7,24.4-8.3,7.4-6.6,11.3-13.8,11.9-21.6.6-7.8-3-15.9-10.8-24.6"></path>
    </g>
    <g id="g150">
      <g id="g172">
        <g class="cls-7">
          <g id="g170" class="cls-maplocation1">
            <g id="g168">
              <g class="cls-6">
                <g id="g166">
                  <g id="g164">
                    <path id="path162" class="cls-5" d="M632.1,243.8c.4-.3.6-.7.9-1l1-1c.1-.2.3-.4.5-.6,26.2-28.6,25.3-72.5-2.1-100l-3.2-3.2-4.4-4.5c-5.4-5.4-14.2-5.4-19.7,0-5.4,5.4-5.5,14.2,0,19.7l7.6,7.7c17.4,17.5,17.3,45.8-.2,63.2l-5.4,5.5c-5.4,5.4-5.4,14.1,0,19.5,2.6,2.6,6.1,4.1,9.8,4.1,3.7,0,7.1-1.4,9.7-4l5.6-5.4Z"></path>
                  </g>
                </g>
              </g>
            </g>
          </g>
        </g>
      </g>
    </g>
    <g id="g174">
      <path id="path176" class="cls-5" d="M582.4,228.4c-2.8,0-5.7-1.1-7.9-3.2-4.5-4.4-4.6-11.5-.2-16l3.2-3.3s0,0,.1-.1c6-5.9,6-15.6,0-21.6l-4.6-4.6c-4.4-4.4-4.4-11.6,0-16,4.4-4.4,11.6-4.4,16,0l4.5,4.6c14.7,14.8,14.6,38.8-.1,53.5l-3.1,3.2c-2.2,2.3-5.2,3.4-8.1,3.4"></path>
    </g>
    <g id="g178">
      <g id="g200">
        <g class="cls-2">
          <g id="g198" class="cls-maplocation3">
            <g id="g196">
              <g class="cls-8">
                <g id="g194">
                  <g id="g192">
                    <path id="path190" class="cls-5" d="M659.4,281.7l4.7-4.6s0,0,0,0l3.7-3.7c.6-.6,1.2-1.3,1.7-2,41.2-46.7,40.1-117.8-3.3-163.3-.2-.2-.4-.4-.6-.7l-8.3-8.3c-4.9-5-12.9-4.9-18,0-5,4.9-5,12.9,0,17.9l8.3,8.3c0,0,.2.1.2.2,35.3,36.7,35.3,94.8.3,131.6l-6.6,6.5c-4.9,4.9-5,13,0,18,4.9,4.9,13,5,17.9,0"></path>
                  </g>
                </g>
              </g>
            </g>
          </g>
        </g>
      </g>
    </g>
  </g>
</svg>
